<svg xmlns="http://www.w3.org/2000/svg" width="1420" height="860" viewBox="0 0 1420 860" font-family="Helvetica, Arial, sans-serif">
<rect width="100%" height="100%" fill="white"/>
<text x="20" y="34" font-size="16" font-weight="bold">Diagrama de Componentes – Punto Paz Salud, Incremento 3</text>
<polygon points="100,76 116,60 1060,60 1044,76" fill="#eec5c3" stroke="#b85450"/>
<polygon points="1044,76 1060,60 1060,804 1044,820" fill="#dfb9b7" stroke="#b85450"/>
<rect x="100" y="76" width="944" height="744" fill="#f8cecc" stroke="#b85450"/>
<text x="107" y="91" font-size="12" text-decoration="underline">Controlador</text>
<polygon points="1180,431 1196,415 1370,415 1354,431" fill="#d1def1" stroke="#6c8ebf"/>
<polygon points="1354,431 1370,415 1370,519 1354,535" fill="#c4d0e2" stroke="#6c8ebf"/>
<rect x="1180" y="431" width="174" height="104" fill="#dae8fc" stroke="#6c8ebf"/>
<text x="1187" y="446" font-size="12" text-decoration="underline">Vista</text>
<polygon points="1180,686 1196,670 1370,670 1354,686" fill="#f4dcc3" stroke="#d79b00"/>
<polygon points="1354,686 1370,670 1370,774 1354,790" fill="#e5cfb7" stroke="#d79b00"/>
<rect x="1180" y="686" width="174" height="104" fill="#ffe6cc" stroke="#d79b00"/>
<text x="1187" y="701" font-size="12" text-decoration="underline">Bases de Datos</text>
<polyline fill="none" stroke="#000000" stroke-width="1" stroke-dasharray="4 3" points="530,138 545,138 545,365"/>
<polyline fill="none" stroke="#000000" stroke-width="1" stroke-dasharray="4 3" points="530,218 558,218 558,365"/>
<polyline fill="none" stroke="#000000" stroke-width="1" stroke-dasharray="4 3" points="530,298 571,298 571,365"/>
<polyline fill="none" stroke="#000000" stroke-width="1" stroke-dasharray="4 3" points="630,138 615,138 615,365"/>
<polyline fill="none" stroke="#000000" stroke-width="1" stroke-dasharray="4 3" points="630,218 602,218 602,365"/>
<polyline fill="none" stroke="#000000" stroke-width="1" stroke-dasharray="4 3" points="630,298 589,298 589,365"/>
<polyline fill="none" stroke="#000000" stroke-width="1" stroke-dasharray="4 3" points="580,415 580,450"/>
<polyline fill="none" stroke="#000000" stroke-width="1" stroke-dasharray="4 3" points="580,500 580,540 170,540 170,570"/>
<polyline fill="none" stroke="#000000" stroke-width="1" stroke-dasharray="4 3" points="580,500 580,540 288,540 288,570"/>
<polyline fill="none" stroke="#000000" stroke-width="1" stroke-dasharray="4 3" points="580,500 580,540 404,540 404,570"/>
<polyline fill="none" stroke="#000000" stroke-width="1" stroke-dasharray="4 3" points="580,500 580,540 522,540 522,570"/>
<polyline fill="none" stroke="#000000" stroke-width="1" stroke-dasharray="4 3" points="580,500 580,540 638,540 638,570"/>
<polyline fill="none" stroke="#000000" stroke-width="1" stroke-dasharray="4 3" points="580,500 580,540 756,540 756,570"/>
<polyline fill="none" stroke="#000000" stroke-width="1" stroke-dasharray="4 3" points="580,500 580,540 872,540 872,570"/>
<polyline fill="none" stroke="#000000" stroke-width="1" stroke-dasharray="4 3" points="580,500 580,540 990,540 990,570"/>
<polyline fill="none" stroke="#000000" stroke-width="1" stroke-dasharray="4 3" points="170,625 170,665 580,665 580,700"/>
<polyline fill="none" stroke="#000000" stroke-width="1" stroke-dasharray="4 3" points="288,625 288,665 580,665 580,700"/>
<polyline fill="none" stroke="#000000" stroke-width="1" stroke-dasharray="4 3" points="404,625 404,665 580,665 580,700"/>
<polyline fill="none" stroke="#000000" stroke-width="1" stroke-dasharray="4 3" points="522,625 522,665 580,665 580,700"/>
<polyline fill="none" stroke="#000000" stroke-width="1" stroke-dasharray="4 3" points="638,625 638,665 580,665 580,700"/>
<polyline fill="none" stroke="#000000" stroke-width="1" stroke-dasharray="4 3" points="756,625 756,665 580,665 580,700"/>
<polyline fill="none" stroke="#000000" stroke-width="1" stroke-dasharray="4 3" points="990,625 990,665 580,665 580,700"/>
<polyline fill="none" stroke="#000000" stroke-width="1" stroke-dasharray="4 3" points="486,570 486,390 530,390"/>
<polyline fill="none" stroke="#000000" stroke-width="1" stroke-dasharray="4 3" points="457,598 469,598"/>
<polyline fill="none" stroke="#000000" stroke-width="1" stroke-dasharray="4 3" points="586,598 574,598"/>
<line x1="630" y1="475" x2="1122" y2="475" stroke="#000000"/>
<circle cx="1130" cy="475" r="8" fill="white" stroke="#000000"/>
<line x1="1138" y1="475" x2="1180" y2="475" stroke="#000000"/>
<text x="880" y="465" font-size="11" text-anchor="middle">HTTP/JSON</text>
<line x1="630" y1="729" x2="1122" y2="729" stroke="#000000"/>
<circle cx="1130" cy="729" r="8" fill="white" stroke="#000000"/>
<line x1="1138" y1="729" x2="1180" y2="729" stroke="#000000"/>
<text x="880" y="706" font-size="11" text-anchor="middle">Driver</text>
<text x="880" y="719" font-size="11" text-anchor="middle">MySQL</text>
<defs><linearGradient id="g_api_openai" x1="0" y1="1" x2="0" y2="0"><stop offset="0" stop-color="#dae8fc"/><stop offset="1" stop-color="#ffffff"/></linearGradient></defs>
<rect x="438" y="110" width="92" height="55" fill="url(#g_api_openai)" stroke="#6c8ebf"/>
<rect x="430" y="125" width="16" height="6" fill="#dae8fc" stroke="#6c8ebf"/>
<rect x="430" y="140" width="16" height="6" fill="#dae8fc" stroke="#6c8ebf"/>
<text x="484" y="135" font-size="11" text-anchor="middle">API</text>
<text x="484" y="148" font-size="11" text-anchor="middle">OpenAI</text>
<defs><linearGradient id="g_api_trans" x1="0" y1="1" x2="0" y2="0"><stop offset="0" stop-color="#fff2cc"/><stop offset="1" stop-color="#ffffff"/></linearGradient></defs>
<rect x="438" y="190" width="92" height="55" fill="url(#g_api_trans)" stroke="#d6b656"/>
<rect x="430" y="205" width="16" height="6" fill="#fff2cc" stroke="#d6b656"/>
<rect x="430" y="220" width="16" height="6" fill="#fff2cc" stroke="#d6b656"/>
<text x="484" y="215" font-size="11" text-anchor="middle">API</text>
<text x="484" y="228" font-size="11" text-anchor="middle">Transacciones</text>
<defs><linearGradient id="g_api_bonos" x1="0" y1="1" x2="0" y2="0"><stop offset="0" stop-color="#d5e8d4"/><stop offset="1" stop-color="#ffffff"/></linearGradient></defs>
<rect x="438" y="270" width="92" height="55" fill="url(#g_api_bonos)" stroke="#82b366"/>
<rect x="430" y="285" width="16" height="6" fill="#d5e8d4" stroke="#82b366"/>
<rect x="430" y="300" width="16" height="6" fill="#d5e8d4" stroke="#82b366"/>
<text x="484" y="295" font-size="11" text-anchor="middle">API Bonos</text>
<text x="484" y="308" font-size="11" text-anchor="middle">Electrónicos</text>
<defs><linearGradient id="g_api_cloud" x1="0" y1="1" x2="0" y2="0"><stop offset="0" stop-color="#e1d5e7"/><stop offset="1" stop-color="#ffffff"/></linearGradient></defs>
<rect x="638" y="110" width="92" height="55" fill="url(#g_api_cloud)" stroke="#9673a6"/>
<rect x="630" y="125" width="16" height="6" fill="#e1d5e7" stroke="#9673a6"/>
<rect x="630" y="140" width="16" height="6" fill="#e1d5e7" stroke="#9673a6"/>
<text x="684" y="135" font-size="11" text-anchor="middle">API</text>
<text x="684" y="148" font-size="11" text-anchor="middle">Cloudinary</text>
<defs><linearGradient id="g_api_brevo" x1="0" y1="1" x2="0" y2="0"><stop offset="0" stop-color="#e1d5e7"/><stop offset="1" stop-color="#ffffff"/></linearGradient></defs>
<rect x="638" y="190" width="92" height="55" fill="url(#g_api_brevo)" stroke="#9673a6"/>
<rect x="630" y="205" width="16" height="6" fill="#e1d5e7" stroke="#9673a6"/>
<rect x="630" y="220" width="16" height="6" fill="#e1d5e7" stroke="#9673a6"/>
<text x="684" y="215" font-size="11" text-anchor="middle">API</text>
<text x="684" y="228" font-size="11" text-anchor="middle">Brevo</text>
<defs><linearGradient id="g_api_expo" x1="0" y1="1" x2="0" y2="0"><stop offset="0" stop-color="#e1d5e7"/><stop offset="1" stop-color="#ffffff"/></linearGradient></defs>
<rect x="638" y="270" width="92" height="55" fill="url(#g_api_expo)" stroke="#9673a6"/>
<rect x="630" y="285" width="16" height="6" fill="#e1d5e7" stroke="#9673a6"/>
<rect x="630" y="300" width="16" height="6" fill="#e1d5e7" stroke="#9673a6"/>
<text x="684" y="295" font-size="11" text-anchor="middle">API</text>
<text x="684" y="308" font-size="11" text-anchor="middle">Expo Push</text>
<defs><linearGradient id="g_adapter" x1="0" y1="1" x2="0" y2="0"><stop offset="0" stop-color="#f8cecc"/><stop offset="1" stop-color="#ffffff"/></linearGradient></defs>
<rect x="538" y="365" width="92" height="50" fill="url(#g_adapter)" stroke="#b85450"/>
<rect x="530" y="379" width="16" height="6" fill="#f8cecc" stroke="#b85450"/>
<rect x="530" y="392" width="16" height="6" fill="#f8cecc" stroke="#b85450"/>
<text x="584" y="394" font-size="11" text-anchor="middle">API Adapter</text>
<defs><linearGradient id="g_rest" x1="0" y1="1" x2="0" y2="0"><stop offset="0" stop-color="#f8cecc"/><stop offset="1" stop-color="#ffffff"/></linearGradient></defs>
<rect x="538" y="450" width="92" height="50" fill="url(#g_rest)" stroke="#b85450"/>
<rect x="530" y="464" width="16" height="6" fill="#f8cecc" stroke="#b85450"/>
<rect x="530" y="478" width="16" height="6" fill="#f8cecc" stroke="#b85450"/>
<text x="584" y="479" font-size="11" text-anchor="middle">API REST</text>
<defs><linearGradient id="g_seguridad" x1="0" y1="1" x2="0" y2="0"><stop offset="0" stop-color="#f8cecc"/><stop offset="1" stop-color="#ffffff"/></linearGradient></defs>
<rect x="126" y="570" width="97" height="55" fill="url(#g_seguridad)" stroke="#b85450"/>
<rect x="118" y="585" width="16" height="6" fill="#f8cecc" stroke="#b85450"/>
<rect x="118" y="600" width="16" height="6" fill="#f8cecc" stroke="#b85450"/>
<text x="174" y="595" font-size="11" text-anchor="middle">Seguridad</text>
<text x="174" y="608" font-size="11" text-anchor="middle">JWT/BCrypt</text>
<defs><linearGradient id="g_motor_ag" x1="0" y1="1" x2="0" y2="0"><stop offset="0" stop-color="#f8cecc"/><stop offset="1" stop-color="#ffffff"/></linearGradient></defs>
<rect x="243" y="570" width="97" height="55" fill="url(#g_motor_ag)" stroke="#b85450"/>
<rect x="235" y="585" width="16" height="6" fill="#f8cecc" stroke="#b85450"/>
<rect x="235" y="600" width="16" height="6" fill="#f8cecc" stroke="#b85450"/>
<text x="292" y="595" font-size="11" text-anchor="middle">Motor</text>
<text x="292" y="608" font-size="11" text-anchor="middle">Agendamiento</text>
<defs><linearGradient id="g_programador" x1="0" y1="1" x2="0" y2="0"><stop offset="0" stop-color="#f8cecc"/><stop offset="1" stop-color="#ffffff"/></linearGradient></defs>
<rect x="360" y="570" width="97" height="55" fill="url(#g_programador)" stroke="#b85450"/>
<rect x="352" y="585" width="16" height="6" fill="#f8cecc" stroke="#b85450"/>
<rect x="352" y="600" width="16" height="6" fill="#f8cecc" stroke="#b85450"/>
<text x="408" y="595" font-size="11" text-anchor="middle">Programador</text>
<text x="408" y="608" font-size="11" text-anchor="middle">de Agenda</text>
<defs><linearGradient id="g_despachador" x1="0" y1="1" x2="0" y2="0"><stop offset="0" stop-color="#f8cecc"/><stop offset="1" stop-color="#ffffff"/></linearGradient></defs>
<rect x="477" y="570" width="97" height="55" fill="url(#g_despachador)" stroke="#b85450"/>
<rect x="469" y="585" width="16" height="6" fill="#f8cecc" stroke="#b85450"/>
<rect x="469" y="600" width="16" height="6" fill="#f8cecc" stroke="#b85450"/>
<text x="526" y="595" font-size="11" text-anchor="middle">Despachador de</text>
<text x="526" y="608" font-size="11" text-anchor="middle">Notificaciones</text>
<defs><linearGradient id="g_motor_cl" x1="0" y1="1" x2="0" y2="0"><stop offset="0" stop-color="#f8cecc"/><stop offset="1" stop-color="#ffffff"/></linearGradient></defs>
<rect x="594" y="570" width="97" height="55" fill="url(#g_motor_cl)" stroke="#b85450"/>
<rect x="586" y="585" width="16" height="6" fill="#f8cecc" stroke="#b85450"/>
<rect x="586" y="600" width="16" height="6" fill="#f8cecc" stroke="#b85450"/>
<text x="642" y="595" font-size="11" text-anchor="middle">Motor</text>
<text x="642" y="608" font-size="11" text-anchor="middle">Clínico</text>
<defs><linearGradient id="g_filtro" x1="0" y1="1" x2="0" y2="0"><stop offset="0" stop-color="#f8cecc"/><stop offset="1" stop-color="#ffffff"/></linearGradient></defs>
<rect x="711" y="570" width="97" height="55" fill="url(#g_filtro)" stroke="#b85450"/>
<rect x="703" y="585" width="16" height="6" fill="#f8cecc" stroke="#b85450"/>
<rect x="703" y="600" width="16" height="6" fill="#f8cecc" stroke="#b85450"/>
<text x="760" y="595" font-size="11" text-anchor="middle">Filtro de</text>
<text x="760" y="608" font-size="11" text-anchor="middle">Contenido</text>
<defs><linearGradient id="g_cifrado" x1="0" y1="1" x2="0" y2="0"><stop offset="0" stop-color="#f8cecc"/><stop offset="1" stop-color="#ffffff"/></linearGradient></defs>
<rect x="828" y="570" width="97" height="55" fill="url(#g_cifrado)" stroke="#b85450"/>
<rect x="820" y="585" width="16" height="6" fill="#f8cecc" stroke="#b85450"/>
<rect x="820" y="600" width="16" height="6" fill="#f8cecc" stroke="#b85450"/>
<text x="876" y="595" font-size="11" text-anchor="middle">Cifrado de</text>
<text x="876" y="608" font-size="11" text-anchor="middle">Mensajería</text>
<defs><linearGradient id="g_informes" x1="0" y1="1" x2="0" y2="0"><stop offset="0" stop-color="#f8cecc"/><stop offset="1" stop-color="#ffffff"/></linearGradient></defs>
<rect x="945" y="570" width="97" height="55" fill="url(#g_informes)" stroke="#b85450"/>
<rect x="937" y="585" width="16" height="6" fill="#f8cecc" stroke="#b85450"/>
<rect x="937" y="600" width="16" height="6" fill="#f8cecc" stroke="#b85450"/>
<text x="994" y="595" font-size="11" text-anchor="middle">Generador</text>
<text x="994" y="608" font-size="11" text-anchor="middle">de Informes</text>
<defs><linearGradient id="g_dao" x1="0" y1="1" x2="0" y2="0"><stop offset="0" stop-color="#f8cecc"/><stop offset="1" stop-color="#ffffff"/></linearGradient></defs>
<rect x="538" y="700" width="92" height="58" fill="url(#g_dao)" stroke="#b85450"/>
<rect x="530" y="716" width="16" height="6" fill="#f8cecc" stroke="#b85450"/>
<rect x="530" y="732" width="16" height="6" fill="#f8cecc" stroke="#b85450"/>
<text x="584" y="720" font-size="11" text-anchor="middle">Capa de</text>
<text x="584" y="733" font-size="11" text-anchor="middle">Acceso a</text>
<text x="584" y="746" font-size="11" text-anchor="middle">Datos</text>
<defs><linearGradient id="g_cliente" x1="0" y1="1" x2="0" y2="0"><stop offset="0" stop-color="#dae8fc"/><stop offset="1" stop-color="#ffffff"/></linearGradient></defs>
<rect x="1233" y="450" width="92" height="50" fill="url(#g_cliente)" stroke="#6c8ebf"/>
<rect x="1225" y="464" width="16" height="6" fill="#dae8fc" stroke="#6c8ebf"/>
<rect x="1225" y="478" width="16" height="6" fill="#dae8fc" stroke="#6c8ebf"/>
<text x="1279" y="472" font-size="11" text-anchor="middle">Cliente</text>
<text x="1279" y="486" font-size="11" text-anchor="middle">Móvil</text>
<defs><linearGradient id="g_mysql" x1="0" y1="1" x2="0" y2="0"><stop offset="0" stop-color="#ffe6cc"/><stop offset="1" stop-color="#ffffff"/></linearGradient></defs>
<rect x="1233" y="705" width="92" height="50" fill="url(#g_mysql)" stroke="#d79b00"/>
<rect x="1225" y="719" width="16" height="6" fill="#ffe6cc" stroke="#d79b00"/>
<rect x="1225" y="732" width="16" height="6" fill="#ffe6cc" stroke="#d79b00"/>
<text x="1279" y="734" font-size="11" text-anchor="middle">MySQL</text>
</svg>