<svg xmlns="http://www.w3.org/2000/svg" width="1473" height="1632" viewBox="0 0 1473 1632" font-family="Helvetica, Arial, sans-serif">
<rect width="100%" height="100%" fill="white"/>
<text x="40" y="62" font-size="20" font-weight="bold" fill="#1D1D3B">Árbol de Navegación – FRO Salud, Incremento 1</text>
<rect x="40" y="86" width="80" height="26" rx="6" fill="#2563B8" stroke="#1B4F8F"/><text x="80" y="103" font-size="10" font-weight="bold" text-anchor="middle" fill="#FFFFFF">Interfaz</text>
<rect x="128" y="86" width="96" height="26" rx="6" fill="#D6E4F7" stroke="#2563B8"/><text x="176" y="103" font-size="10" text-anchor="middle" fill="#1D1D3B">Funcionalidad</text>
<text x="236" y="104" font-size="14" font-weight="bold" fill="#1D1D3B">Incremento 1 (Azul)</text>
<polyline fill="none" stroke="#5C5C7A" stroke-width="1.2" points="742,379 708,379"/>
<polyline fill="none" stroke="#5C5C7A" stroke-width="1.2" points="742,379 776,379"/>
<polyline fill="none" stroke="#5C5C7A" stroke-width="1.2" points="742,449 708,449"/>
<polyline fill="none" stroke="#5C5C7A" stroke-width="1.2" points="742,637 708,637"/>
<polyline fill="none" stroke="#5C5C7A" stroke-width="1.2" points="742,825 708,825"/>
<polyline fill="none" stroke="#5C5C7A" stroke-width="1.2" points="116,958 116,986"/>
<polyline fill="none" stroke="#5C5C7A" stroke-width="1.2" points="742,770 742,878 116,878 116,908"/>
<polyline fill="none" stroke="#5C5C7A" stroke-width="1.2" points="290,958 290,986"/>
<polyline fill="none" stroke="#5C5C7A" stroke-width="1.2" points="742,770 742,878 290,878 290,908"/>
<polyline fill="none" stroke="#5C5C7A" stroke-width="1.2" points="464,958 464,986"/>
<polyline fill="none" stroke="#5C5C7A" stroke-width="1.2" points="742,770 742,878 464,878 464,908"/>
<polyline fill="none" stroke="#5C5C7A" stroke-width="1.2" points="742,1013 708,1013"/>
<polyline fill="none" stroke="#5C5C7A" stroke-width="1.2" points="742,1013 776,1013"/>
<polyline fill="none" stroke="#5C5C7A" stroke-width="1.2" points="655,1146 655,1174"/>
<polyline fill="none" stroke="#5C5C7A" stroke-width="1.2" points="742,958 742,1066 655,1066 655,1096"/>
<polyline fill="none" stroke="#5C5C7A" stroke-width="1.2" points="829,1146 829,1174"/>
<polyline fill="none" stroke="#5C5C7A" stroke-width="1.2" points="829,1232 829,1246"/>
<polyline fill="none" stroke="#5C5C7A" stroke-width="1.2" points="829,1304 829,1318"/>
<polyline fill="none" stroke="#5C5C7A" stroke-width="1.2" points="829,1376 829,1390"/>
<polyline fill="none" stroke="#5C5C7A" stroke-width="1.2" points="829,1448 829,1462"/>
<polyline fill="none" stroke="#5C5C7A" stroke-width="1.2" points="829,1520 829,1534"/>
<polyline fill="none" stroke="#5C5C7A" stroke-width="1.2" points="742,958 742,1066 829,1066 829,1096"/>
<polyline fill="none" stroke="#5C5C7A" stroke-width="1.2" points="742,770 742,878 742,878 742,908"/>
<polyline fill="none" stroke="#5C5C7A" stroke-width="1.2" points="1020,958 1020,986"/>
<polyline fill="none" stroke="#5C5C7A" stroke-width="1.2" points="742,770 742,878 1020,878 1020,908"/>
<polyline fill="none" stroke="#5C5C7A" stroke-width="1.2" points="1194,958 1194,986"/>
<polyline fill="none" stroke="#5C5C7A" stroke-width="1.2" points="742,770 742,878 1194,878 1194,908"/>
<polyline fill="none" stroke="#5C5C7A" stroke-width="1.2" points="1368,958 1368,986"/>
<polyline fill="none" stroke="#5C5C7A" stroke-width="1.2" points="742,770 742,878 1368,878 1368,908"/>
<polyline fill="none" stroke="#5C5C7A" stroke-width="1.2" points="742,582 742,720"/>
<polyline fill="none" stroke="#5C5C7A" stroke-width="1.2" points="742,324 742,532"/>
<polyline fill="none" stroke="#5C5C7A" stroke-width="1.2" points="742,200 742,274"/>
<rect x="677" y="150" width="130" height="50" rx="8" fill="#2563B8" stroke="#1B4F8F"/>
<text x="742" y="179" font-size="11" text-anchor="middle" fill="#FFFFFF" font-weight="bold">Sistema</text>
<rect x="677" y="274" width="130" height="50" rx="8" fill="#2563B8" stroke="#1B4F8F"/>
<text x="742" y="303" font-size="11" text-anchor="middle" fill="#FFFFFF" font-weight="bold">Registro</text>
<rect x="578" y="350" width="130" height="58" rx="8" fill="#D6E4F7" stroke="#2563B8"/>
<text x="643" y="376" font-size="10" text-anchor="middle" fill="#1D1D3B">Registrar paciente</text>
<text x="643" y="389" font-size="10" text-anchor="middle" fill="#1D1D3B">(CU01)</text>
<rect x="776" y="350" width="130" height="58" rx="8" fill="#D6E4F7" stroke="#2563B8"/>
<text x="841" y="376" font-size="10" text-anchor="middle" fill="#1D1D3B">Registrar profesional</text>
<text x="841" y="389" font-size="10" text-anchor="middle" fill="#1D1D3B">(CU02)</text>
<rect x="578" y="420" width="130" height="58" rx="8" fill="#D6E4F7" stroke="#2563B8"/>
<text x="643" y="446" font-size="10" text-anchor="middle" fill="#1D1D3B">Controlar unicidad de</text>
<text x="643" y="459" font-size="10" text-anchor="middle" fill="#1D1D3B">cuentas (CU03)</text>
<rect x="677" y="532" width="130" height="50" rx="8" fill="#2563B8" stroke="#1B4F8F"/>
<text x="742" y="561" font-size="11" text-anchor="middle" fill="#FFFFFF" font-weight="bold">Activación de Cuenta</text>
<rect x="578" y="608" width="130" height="58" rx="8" fill="#D6E4F7" stroke="#2563B8"/>
<text x="643" y="634" font-size="10" text-anchor="middle" fill="#1D1D3B">Verificar identidad</text>
<text x="643" y="647" font-size="10" text-anchor="middle" fill="#1D1D3B">OTP (CU04)</text>
<rect x="677" y="720" width="130" height="50" rx="8" fill="#2563B8" stroke="#1B4F8F"/>
<text x="742" y="749" font-size="11" text-anchor="middle" fill="#FFFFFF" font-weight="bold">Inicio de Sesión</text>
<rect x="578" y="796" width="130" height="58" rx="8" fill="#D6E4F7" stroke="#2563B8"/>
<text x="643" y="822" font-size="10" text-anchor="middle" fill="#1D1D3B">Autenticar usuario</text>
<text x="643" y="835" font-size="10" text-anchor="middle" fill="#1D1D3B">(CU05)</text>
<rect x="51" y="908" width="130" height="50" rx="8" fill="#2563B8" stroke="#1B4F8F"/>
<text x="116" y="937" font-size="11" text-anchor="middle" fill="#FFFFFF" font-weight="bold">Gestión Profesional</text>
<rect x="51" y="986" width="130" height="58" rx="8" fill="#D6E4F7" stroke="#2563B8"/>
<text x="116" y="1012" font-size="10" text-anchor="middle" fill="#1D1D3B">Visualizar panel</text>
<text x="116" y="1025" font-size="10" text-anchor="middle" fill="#1D1D3B">profesional (CU11)</text>
<rect x="225" y="908" width="130" height="50" rx="8" fill="#2563B8" stroke="#1B4F8F"/>
<text x="290" y="930" font-size="11" text-anchor="middle" fill="#FFFFFF" font-weight="bold">Panel de Acceso</text>
<text x="290" y="944" font-size="11" text-anchor="middle" fill="#FFFFFF" font-weight="bold">Restringido</text>
<rect x="225" y="986" width="130" height="58" rx="8" fill="#D6E4F7" stroke="#2563B8"/>
<text x="290" y="1012" font-size="10" text-anchor="middle" fill="#1D1D3B">Controlar acceso RBAC</text>
<text x="290" y="1025" font-size="10" text-anchor="middle" fill="#1D1D3B">(CU12)</text>
<rect x="399" y="908" width="130" height="50" rx="8" fill="#2563B8" stroke="#1B4F8F"/>
<text x="464" y="937" font-size="11" text-anchor="middle" fill="#FFFFFF" font-weight="bold">Consola de Auditoría</text>
<rect x="399" y="986" width="130" height="58" rx="8" fill="#D6E4F7" stroke="#2563B8"/>
<text x="464" y="1012" font-size="10" text-anchor="middle" fill="#1D1D3B">Registrar bitácora de</text>
<text x="464" y="1025" font-size="10" text-anchor="middle" fill="#1D1D3B">auditoría (CU13)</text>
<rect x="677" y="908" width="130" height="50" rx="8" fill="#2563B8" stroke="#1B4F8F"/>
<text x="742" y="937" font-size="11" text-anchor="middle" fill="#FFFFFF" font-weight="bold">Agendamiento de Cita</text>
<rect x="578" y="984" width="130" height="58" rx="8" fill="#D6E4F7" stroke="#2563B8"/>
<text x="643" y="1010" font-size="10" text-anchor="middle" fill="#1D1D3B">Buscar y seleccionar</text>
<text x="643" y="1023" font-size="10" text-anchor="middle" fill="#1D1D3B">cita (CU14)</text>
<rect x="776" y="984" width="130" height="58" rx="8" fill="#D6E4F7" stroke="#2563B8"/>
<text x="841" y="1010" font-size="10" text-anchor="middle" fill="#1D1D3B">Controlar concurrencia</text>
<text x="841" y="1023" font-size="10" text-anchor="middle" fill="#1D1D3B">(CU15)</text>
<rect x="590" y="1096" width="130" height="50" rx="8" fill="#2563B8" stroke="#1B4F8F"/>
<text x="655" y="1125" font-size="11" text-anchor="middle" fill="#FFFFFF" font-weight="bold">Atención Clínica</text>
<rect x="590" y="1174" width="130" height="58" rx="8" fill="#D6E4F7" stroke="#2563B8"/>
<text x="655" y="1200" font-size="10" text-anchor="middle" fill="#1D1D3B">Consolidar ficha</text>
<text x="655" y="1213" font-size="10" text-anchor="middle" fill="#1D1D3B">clínica (CU28)</text>
<rect x="764" y="1096" width="130" height="50" rx="8" fill="#2563B8" stroke="#1B4F8F"/>
<text x="829" y="1125" font-size="11" text-anchor="middle" fill="#FFFFFF" font-weight="bold">Ficha Clínica</text>
<rect x="764" y="1174" width="130" height="58" rx="8" fill="#D6E4F7" stroke="#2563B8"/>
<text x="829" y="1200" font-size="10" text-anchor="middle" fill="#1D1D3B">Registrar antecedentes</text>
<text x="829" y="1213" font-size="10" text-anchor="middle" fill="#1D1D3B">(CU29)</text>
<rect x="764" y="1246" width="130" height="58" rx="8" fill="#D6E4F7" stroke="#2563B8"/>
<text x="829" y="1272" font-size="10" text-anchor="middle" fill="#1D1D3B">Asegurar</text>
<text x="829" y="1285" font-size="10" text-anchor="middle" fill="#1D1D3B">inalterabilidad (CU30)</text>
<rect x="764" y="1318" width="130" height="58" rx="8" fill="#D6E4F7" stroke="#2563B8"/>
<text x="829" y="1344" font-size="10" text-anchor="middle" fill="#1D1D3B">Definir metas y</text>
<text x="829" y="1357" font-size="10" text-anchor="middle" fill="#1D1D3B">objetivos (CU32)</text>
<rect x="764" y="1390" width="130" height="58" rx="8" fill="#D6E4F7" stroke="#2563B8"/>
<text x="829" y="1416" font-size="10" text-anchor="middle" fill="#1D1D3B">Documentar</text>
<text x="829" y="1429" font-size="10" text-anchor="middle" fill="#1D1D3B">intervención (CU40)</text>
<rect x="764" y="1462" width="130" height="58" rx="8" fill="#D6E4F7" stroke="#2563B8"/>
<text x="829" y="1488" font-size="10" text-anchor="middle" fill="#1D1D3B">Firmar digitalmente</text>
<text x="829" y="1501" font-size="10" text-anchor="middle" fill="#1D1D3B">(CU36)</text>
<rect x="764" y="1534" width="130" height="58" rx="8" fill="#D6E4F7" stroke="#2563B8"/>
<text x="829" y="1560" font-size="10" text-anchor="middle" fill="#1D1D3B">Registrar marcas</text>
<text x="829" y="1573" font-size="10" text-anchor="middle" fill="#1D1D3B">temporales (CU38)</text>
<rect x="955" y="908" width="130" height="50" rx="8" fill="#2563B8" stroke="#1B4F8F"/>
<text x="1020" y="930" font-size="11" text-anchor="middle" fill="#FFFFFF" font-weight="bold">Gestión de</text>
<text x="1020" y="944" font-size="11" text-anchor="middle" fill="#FFFFFF" font-weight="bold">Disponibilidad</text>
<rect x="955" y="986" width="130" height="58" rx="8" fill="#D6E4F7" stroke="#2563B8"/>
<text x="1020" y="1012" font-size="10" text-anchor="middle" fill="#1D1D3B">Restringir</text>
<text x="1020" y="1025" font-size="10" text-anchor="middle" fill="#1D1D3B">disponibilidad (CU16)</text>
<rect x="1129" y="908" width="130" height="50" rx="8" fill="#2563B8" stroke="#1B4F8F"/>
<text x="1194" y="937" font-size="11" text-anchor="middle" fill="#FFFFFF" font-weight="bold">Gestión de Agenda</text>
<rect x="1129" y="986" width="130" height="58" rx="8" fill="#D6E4F7" stroke="#2563B8"/>
<text x="1194" y="1012" font-size="10" text-anchor="middle" fill="#1D1D3B">Transicionar estados</text>
<text x="1194" y="1025" font-size="10" text-anchor="middle" fill="#1D1D3B">de cita (CU20)</text>
<rect x="1303" y="908" width="130" height="50" rx="8" fill="#2563B8" stroke="#1B4F8F"/>
<text x="1368" y="930" font-size="11" text-anchor="middle" fill="#FFFFFF" font-weight="bold">Gestión de</text>
<text x="1368" y="944" font-size="11" text-anchor="middle" fill="#FFFFFF" font-weight="bold">Parámetros</text>
<rect x="1303" y="986" width="130" height="58" rx="8" fill="#D6E4F7" stroke="#2563B8"/>
<text x="1368" y="1012" font-size="10" text-anchor="middle" fill="#1D1D3B">Gestionar parámetros</text>
<text x="1368" y="1025" font-size="10" text-anchor="middle" fill="#1D1D3B">globales (CU59)</text>
</svg>